<svg width="25" height="25" viewBox="0 0 25 25" version="1.1" xmlns="http://www.w3.org/2000/svg" xmlns:xlink="http://www.w3.org/1999/xlink">
<g id="Canvas" fill="none">
<g id="Vector">
<path d="M 12.5 3.8467e-06C 5.60372 3.8467e-06 0 5.60371 0 12.5C 0 19.3963 5.60372 25 12.5 25C 19.3963 25 25 19.3963 25 12.5C 25 5.60371 19.3963 3.8467e-06 12.5 3.8467e-06ZM 12.5 1.21952C 18.7372 1.21952 23.7805 6.2628 23.7805 12.5C 23.7805 18.7372 18.7372 23.7805 12.5 23.7805C 6.2628 23.7805 1.21951 18.7372 1.21951 12.5C 1.21951 6.2628 6.2628 1.21952 12.5 1.21952ZM 9.26067 6.70732C 8.55585 6.72317 7.94485 7.28926 7.92683 8.09832L 7.92683 16.8921C 7.95091 17.9708 9.02802 18.6252 9.97524 18.1116L 17.5972 13.7005C 18.012 13.4595 18.2927 13.0173 18.2927 12.5C 18.2927 11.9827 18.012 11.5405 17.5972 11.2995L 9.97524 6.88834C 9.73841 6.75996 9.49561 6.70203 9.26067 6.70732Z" fill="#2D9CDB"/>
</g>
</g>
</svg>

