<svg width="25" height="25" viewBox="0 0 25 25" version="1.1" xmlns="http://www.w3.org/2000/svg" xmlns:xlink="http://www.w3.org/1999/xlink">
<g id="Canvas" fill="none">
<g id="Vector">
<path d="M 12.5 25C 15.8482 25 18.9732 23.6886 21.3449 21.3449C 23.7165 18.9732 25 15.8482 25 12.5C 25 9.15179 23.6886 6.02679 21.3449 3.65513C 18.9732 1.28348 15.8482 -5.32184e-08 12.5 -5.32184e-08C 9.15179 -5.32184e-08 6.02679 1.28348 3.65513 3.65513C 1.28348 6.02679 -5.32184e-08 9.15179 -5.32184e-08 12.5C -5.32184e-08 15.8482 1.31138 18.9732 3.65513 21.3449C 6.02679 23.7165 9.15179 25 12.5 25ZM 4.35268 4.35268C 6.52902 2.17634 9.4308 0.976562 12.5 0.976562C 15.5692 0.976562 18.471 2.17634 20.6473 4.35268C 25.1395 8.84487 25.1395 16.1551 20.6473 20.6473C 18.471 22.8237 15.5692 24.0234 12.5 24.0234C 9.4308 24.0234 6.52902 22.8237 4.35268 20.6473C -0.139509 16.1551 -0.139509 8.84487 4.35268 4.35268ZM 5.66406 13.9509C 5.07812 11.5234 5.85937 8.95647 7.70089 7.28237C 9.04018 6.05469 10.798 5.44085 12.6116 5.52455C 14.0067 5.58036 15.2902 6.08259 16.3783 6.89174L 16.2946 5.63616L 17.2712 5.58036L 17.4665 8.59375L 14.4531 8.78906L 14.3973 7.8125L 15.7645 7.7288C 14.8438 7.03125 13.7277 6.61272 12.5558 6.55692C 10.9933 6.47321 9.51451 7.00335 8.37054 8.06362C 6.78013 9.48661 6.11049 11.6908 6.61272 13.7556L 5.66406 13.9509ZM 18.0525 11.1607L 19.0011 10.9375C 19.5871 13.365 18.8058 15.9319 16.9643 17.606C 15.6529 18.7779 14.0346 19.3638 12.3884 19.3638C 10.9375 19.3638 9.48661 18.8895 8.28683 17.9967L 8.37054 19.2522L 7.39397 19.308L 7.19866 16.2946L 10.2121 16.0993L 10.2679 17.0759L 8.87277 17.1596C 9.90513 17.9408 11.1328 18.3315 12.3884 18.3315C 13.7835 18.3315 15.1786 17.8292 16.2946 16.8248C 17.885 15.4018 18.5547 13.2254 18.0525 11.1607Z" fill="#2D9CDB"/>
</g>
</g>
</svg>

